# This file uses centimeters as units for non-parametric coordinates.

mtllib Glass06Shape.mtl
g default
v -65.878395 1.499672 70.154488
v -65.541412 1.499664 77.257912
v -61.483772 1.499664 70.622192
v -61.452480 1.499664 61.346859
v -61.509151 1.499672 77.816643
v -57.375015 1.499672 61.355774
v -57.373379 1.499672 71.056625
v -58.524899 1.499664 82.671059
v -61.501343 1.499664 83.527725
v -65.430687 1.499664 81.678123
v -71.861382 1.499664 77.769791
v -71.817070 1.499664 76.385986
v -73.789215 1.499664 76.512489
v -71.522491 1.499672 69.544846
v -75.603996 1.499664 75.222565
v -66.001686 1.499672 61.356087
v -71.157593 1.499672 61.373375
v -75.664871 1.499664 61.383945
v -75.632278 1.499672 69.060974
v -78.941284 1.499672 68.700653
v -78.513771 1.499672 72.301270
v -79.595612 1.499664 61.394062
v -83.253265 1.499672 61.406895
v -80.696533 1.499672 68.533463
v -57.392639 1.499672 73.648087
v -58.105843 1.499664 81.614578
v -57.741661 1.499664 73.670181
v -59.634525 1.499664 83.326706
v -63.226692 1.499664 82.873573
v -77.370956 1.499664 73.588081
v -79.831635 1.499664 70.234116
v -82.072372 1.499672 65.274963
v -57.373787 1.499664 68.706245
v -58.655792 1.499672 68.004028
v -57.374264 1.499664 65.887680
v -59.230991 1.499664 66.634842
v -58.243988 1.499672 66.237656
v -58.964340 1.499664 67.269554
v -58.696804 1.499664 66.886322
v -58.382507 1.499672 68.153717
v -58.723385 1.499672 67.245224
v -58.671169 1.499664 67.608627
v -58.558426 1.499672 67.889069
v -57.835781 1.499664 66.073402
v -58.419197 1.499664 66.488647
v -65.542389 0.000008 77.261169
v -61.484539 0.000015 70.621490
v -65.878113 0.000008 70.153549
v -61.452805 0.000008 61.344955
v -61.508945 0.000008 77.817986
v -58.657303 0.000008 68.001717
v -57.375183 0.000008 71.056862
v -58.384228 0.000008 68.151505
v -57.375549 0.000008 68.704033
v -59.232529 0.000008 66.632523
v -58.965866 0.000008 67.267242
v -59.629921 0.000008 83.332184
v -61.487812 0.000008 83.524841
v -63.232841 0.000008 82.869354
v -65.437668 0.000008 81.677879
v -71.860909 0.000008 77.779785
v -71.815933 0.000008 76.393837
v -73.789406 0.000008 76.519394
v -71.523178 0.000008 69.544174
v -75.614090 0.000008 75.222534
v -66.001541 0.000008 61.353863
v -71.157990 0.000008 61.370544
v -75.664719 0.000008 61.381668
v -75.633209 0.000008 69.060837
v -78.945953 0.000008 68.701996
v -79.592712 0.000008 61.392090
v -83.273827 0.000008 61.420116
v -82.095993 0.000008 65.282555
v -80.698524 0.000008 68.534653
v -79.847351 0.000008 70.242783
v -78.519203 0.000008 72.308716
v -77.369881 0.000008 73.595306
v -57.394470 0.000008 73.650772
v -57.742458 0.000008 73.672363
v -58.105072 0.000008 81.615799
v -58.534271 0.000008 82.678360
v -57.376808 0.000008 61.353561
v -58.245811 0.000008 66.235428
v -57.837635 0.000008 66.071167
v -57.376072 0.000008 65.885468
v -58.421024 0.000008 66.486404
v -58.698524 0.000008 66.884109
v -58.560192 0.000008 67.886871
v -58.725090 0.000008 67.243011
v -58.672947 0.000008 67.606430
vt 0.862800 0.088400
vt 0.855700 0.184100
vt 0.910000 0.179100
vt 0.906500 0.300100
vt 0.912800 0.082200
vt 0.945237 0.213850
vt 0.948809 0.211942
vt 0.963000 0.174300
vt 0.961995 0.204901
vt 0.937270 0.231589
vt 0.940963 0.223365
vt 0.935759 0.022085
vt 0.914800 0.014600
vt 0.894101 0.022947
vt 0.865700 0.034400
vt 0.784700 0.082500
vt 0.784800 0.098100
vt 0.754700 0.101800
vt 0.785700 0.190500
vt 0.731700 0.119100
vt 0.850400 0.299000
vt 0.786700 0.297600
vt 0.725500 0.296300
vt 0.729000 0.195700
vt 0.688000 0.199500
vt 0.676900 0.295300
vt 0.634600 0.294400
vt 0.668100 0.201300
vt 0.652766 0.243916
vt 0.694400 0.158300
vt 0.679654 0.182409
vt 0.710635 0.141238
vt 0.961316 0.139269
vt 0.956783 0.138879
vt 0.948400 0.026600
vt 0.951785 0.077316
vt 0.958850 0.300600
vt 0.949772 0.236909
vt 0.954943 0.239109
vt 0.960789 0.241597
vt 0.947630 0.233615
vt 0.944235 0.228395
vt 0.946438 0.215361
vt 0.944046 0.223719
vt 0.944872 0.218995
vt 0.862800 0.088400
vt 0.910000 0.179100
vt 0.855700 0.184100
vt 0.906500 0.300100
vt 0.912800 0.082200
vt 0.945237 0.213850
vt 0.963000 0.174300
vt 0.948809 0.211942
vt 0.961995 0.204901
vt 0.937270 0.231589
vt 0.940963 0.223365
vt 0.935759 0.022085
vt 0.914800 0.014600
vt 0.894101 0.022947
vt 0.865700 0.034400
vt 0.784700 0.082500
vt 0.784800 0.098100
vt 0.754700 0.101800
vt 0.785700 0.190500
vt 0.731700 0.119100
vt 0.850400 0.299000
vt 0.786700 0.297600
vt 0.725500 0.296300
vt 0.729000 0.195700
vt 0.688000 0.199500
vt 0.676900 0.295300
vt 0.634600 0.294400
vt 0.652766 0.243916
vt 0.668100 0.201300
vt 0.679654 0.182409
vt 0.694400 0.158300
vt 0.710635 0.141238
vt 0.961316 0.139269
vt 0.956783 0.138879
vt 0.948400 0.026600
vt 0.951785 0.077316
vt 0.958850 0.300600
vt 0.949772 0.236909
vt 0.954943 0.239109
vt 0.960789 0.241597
vt 0.947630 0.233615
vt 0.944235 0.228395
vt 0.946438 0.215361
vt 0.944046 0.223719
vt 0.944872 0.218995
vt 0.961995 0.204901
vt 0.948809 0.211942
vt 0.963000 0.174300
vt 0.914800 0.014600
vt 0.935759 0.022085
vt 0.894101 0.022947
vt 0.784700 0.082500
vt 0.865700 0.034400
vt 0.754700 0.101800
vt 0.731700 0.119100
vt 0.906500 0.300100
vt 0.850400 0.299000
vt 0.786700 0.297600
vt 0.725500 0.296300
vt 0.676900 0.295300
vt 0.634600 0.294400
vt 0.652766 0.243916
vt 0.668100 0.201300
vt 0.679654 0.182409
vt 0.694400 0.158300
vt 0.710635 0.141238
vt 0.961316 0.139269
vt 0.956783 0.138879
vt 0.948400 0.026600
vt 0.951785 0.077316
vt 0.958850 0.300600
vt 0.954943 0.239109
vt 0.960789 0.241597
vt 0.944235 0.228395
vt 0.947630 0.233615
vt 0.946438 0.215361
vt 0.944046 0.223719
vt 0.944872 0.218995
vn 0.000000 -1.000000 -0.000000
vn 0.000001 -1.000000 0.000000
vn 0.000000 -1.000000 0.000000
vn 0.000001 -1.000000 0.000000
vn 0.000000 -1.000000 0.000000
vn 0.000000 -1.000000 0.000000
vn 0.000000 -1.000000 0.000000
vn -0.000000 -1.000000 -0.000000
vn 0.000000 -1.000000 -0.000000
vn -0.000002 -1.000000 0.000001
vn 0.000000 -1.000000 0.000000
vn -0.000002 -1.000000 0.000000
vn 0.000000 -1.000000 0.000000
vn -0.000002 -1.000000 0.000000
vn 0.000000 -1.000000 0.000000
vn 0.000000 -1.000000 0.000000
vn -0.000001 -1.000000 0.000001
vn 0.000000 -1.000000 0.000000
vn -0.000001 -1.000000 0.000001
vn -0.000002 -1.000000 0.000001
vn 0.000000 -1.000000 0.000000
vn -0.000002 -1.000000 0.000001
vn -0.000002 -1.000000 0.000001
vn 0.000000 -1.000000 0.000000
vn -0.000002 -1.000000 0.000000
vn 0.000000 -1.000000 0.000000
vn -0.000002 -1.000000 0.000001
vn 0.000000 -1.000000 0.000000
vn 0.000000 -1.000000 0.000000
vn -0.000000 -1.000000 -0.000000
vn 0.000000 -1.000000 0.000000
vn 0.000000 -1.000000 0.000000
vn -0.000000 -1.000000 -0.000000
vn 0.000000 -1.000000 0.000000
vn 0.000000 -1.000000 -0.000000
vn -0.000000 -1.000000 -0.000000
vn 0.000000 -1.000000 0.000000
vn 0.000000 -1.000000 0.000000
vn 0.000000 -1.000000 -0.000000
vn 0.000000 -1.000000 0.000000
vn 0.000000 -1.000000 0.000000
vn 0.000000 -1.000000 -0.000000
vn 0.000000 -1.000000 0.000000
vn 0.000000 -1.000000 0.000000
vn 0.000000 -1.000000 0.000000
vn 0.000000 -1.000000 0.000000
vn 0.000000 -1.000000 0.000000
vn 0.000000 -1.000000 0.000000
vn 0.000000 -1.000000 0.000000
vn 0.000000 -1.000000 0.000000
vn 0.000000 -1.000000 0.000000
vn 0.000001 -1.000000 0.000000
vn 0.000000 -1.000000 0.000000
vn 0.000000 -1.000000 0.000000
vn 0.000001 -1.000000 0.000000
vn 0.000000 -1.000000 0.000000
vn 0.000000 -1.000000 0.000000
vn 0.000000 -1.000000 0.000000
vn 0.000000 -1.000000 0.000000
vn 0.000000 -1.000000 0.000000
vn 0.000000 -1.000000 0.000000
vn 0.000000 -1.000000 0.000000
vn 0.000000 -1.000000 0.000000
vn 0.000000 -1.000000 0.000000
vn 0.000000 -1.000000 0.000000
vn 0.000000 -1.000000 0.000000
vn 0.000000 -1.000000 0.000000
vn 0.000000 -1.000000 0.000000
vn 0.000000 -1.000000 0.000000
vn 0.000000 -1.000000 0.000000
vn 0.000000 -1.000000 0.000000
vn 0.000000 -1.000000 0.000000
vn 0.000000 -1.000000 0.000000
vn 0.000000 -1.000000 0.000000
vn 0.000000 -1.000000 0.000000
vn 0.000000 -1.000000 0.000000
vn 0.000000 -1.000000 0.000000
vn 0.000000 -1.000000 0.000000
vn 0.000000 -1.000000 0.000000
vn 0.000000 -1.000000 0.000000
vn 0.000000 -1.000000 0.000000
vn 0.000000 -1.000000 0.000000
vn 0.000000 -1.000000 0.000000
vn 0.000000 -1.000000 0.000000
vn 0.000001 -1.000000 0.000000
vn 0.000000 -1.000000 -0.000000
vn 0.000000 -1.000000 0.000000
vn 0.000000 -1.000000 -0.000000
vn 0.000000 -1.000000 0.000000
vn 0.000000 -1.000000 0.000000
vn 0.000000 -1.000000 0.000000
vn -0.000001 -1.000000 -0.000001
vn -0.000002 -1.000000 0.000000
vn -0.000002 -1.000000 0.000000
vn -0.000001 -1.000000 -0.000001
vn 0.000000 -1.000000 0.000000
vn 0.000000 -1.000000 0.000000
vn -0.000000 -1.000000 -0.000000
vn 0.000000 -1.000000 0.000000
vn 0.000000 -1.000000 0.000000
vn -0.000000 -1.000000 -0.000000
vn -0.000001 -1.000000 -0.000001
vn -0.000000 -1.000000 -0.000000
vn 0.000000 -1.000000 0.000000
vn -0.000001 -1.000000 -0.000001
vn 0.000000 -1.000000 0.000000
vn 0.000000 -1.000000 0.000000
vn -0.000000 -1.000000 -0.000000
vn 0.000000 -1.000000 0.000000
vn 0.000000 -1.000000 0.000000
vn -0.000000 -1.000000 -0.000000
vn 0.000000 -1.000000 0.000000
vn 0.000000 -1.000000 0.000000
vn 0.000000 -1.000000 0.000000
vn 0.000000 -1.000000 0.000000
vn 0.000000 -1.000000 0.000000
vn 0.000000 -1.000000 0.000000
vn 0.000000 -1.000000 0.000000
vn 0.000000 -1.000000 0.000000
vn 0.000000 -1.000000 0.000000
vn 0.000000 -1.000000 0.000000
vn 0.000000 -1.000000 0.000000
vn 0.000000 -1.000000 0.000000
vn 0.000000 -1.000000 0.000000
vn 0.000000 -1.000000 0.000000
vn 0.000000 -1.000000 0.000000
vn 0.000000 -1.000000 0.000000
vn 0.000000 -1.000000 0.000000
vn -0.000001 -1.000000 0.000001
vn -0.000001 -1.000000 0.000001
vn 0.000000 -1.000000 0.000000
vn 0.000000 -1.000000 0.000000
vn 0.000000 -1.000000 0.000000
vn 0.000000 -1.000000 0.000000
vn 0.000000 -1.000000 0.000000
vn 0.000000 -1.000000 0.000000
vn 0.000000 -1.000000 0.000000
vn 0.000000 -1.000000 0.000000
vn 0.000000 -1.000000 0.000000
vn 0.000000 -1.000000 0.000000
vn -0.000001 -1.000000 0.000001
vn 0.000000 -1.000000 0.000000
vn 0.000000 -1.000000 0.000000
vn -0.000001 -1.000000 0.000001
vn -0.000002 -1.000000 0.000001
vn -0.000001 -1.000000 0.000001
vn 0.000000 -1.000000 0.000000
vn 0.000000 -1.000000 0.000000
vn -0.000002 -1.000000 0.000001
vn 0.000000 -1.000000 0.000000
vn 0.000000 -1.000000 0.000000
vn 0.000000 -1.000000 0.000000
vn -0.000002 -1.000000 0.000001
vn -0.000002 -1.000000 0.000001
vn -0.000002 -1.000000 0.000001
vn 0.000000 -1.000000 0.000000
vn 0.000000 -1.000000 0.000000
vn -0.000002 -1.000000 0.000001
vn 0.000000 -1.000000 0.000000
vn 0.000000 -1.000000 0.000000
vn -0.000002 -1.000000 0.000001
vn 0.000000 -1.000000 0.000000
vn 0.000000 -1.000000 0.000000
vn 0.000000 -1.000000 0.000000
vn 0.000000 -1.000000 0.000000
vn -0.000000 1.000000 0.000000
vn 0.000001 1.000000 0.000000
vn 0.000001 1.000000 0.000000
vn 0.000001 1.000000 0.000000
vn 0.000001 1.000000 0.000000
vn 0.000001 1.000000 0.000000
vn 0.000001 1.000000 0.000000
vn -0.000000 1.000000 0.000000
vn 0.000000 1.000000 -0.000000
vn -0.000004 1.000000 -0.000001
vn -0.000002 1.000000 0.000002
vn 0.000005 1.000000 -0.000002
vn 0.000009 1.000000 -0.000003
vn 0.000005 1.000000 -0.000002
vn -0.000002 1.000000 0.000002
vn 0.000001 1.000000 0.000000
vn 0.000001 1.000000 0.000000
vn -0.000001 1.000000 0.000000
vn -0.000001 1.000000 0.000000
vn 0.000001 1.000000 0.000000
vn -0.000004 1.000000 -0.000002
vn -0.000004 1.000000 -0.000002
vn 0.000001 1.000000 0.000000
vn -0.000004 1.000000 -0.000001
vn -0.000002 1.000000 0.000002
vn -0.000004 1.000000 -0.000001
vn 0.000001 1.000000 0.000000
vn 0.000000 1.000000 0.000001
vn 0.000000 1.000000 -0.000000
vn -0.000000 1.000000 0.000001
vn -0.000000 1.000000 0.000001
vn 0.000000 1.000000 -0.000000
vn -0.000001 1.000000 0.000001
vn -0.000001 1.000000 0.000000
vn 0.000000 1.000000 -0.000000
vn -0.000000 1.000000 0.000000
vn -0.000001 1.000000 0.000000
vn -0.000000 1.000000 0.000000
vn 0.000000 1.000000 0.000000
vn 0.000000 1.000000 0.000000
vn -0.000000 1.000000 0.000000
vn -0.000000 1.000000 0.000001
vn 0.000000 1.000000 0.000000
vn -0.000000 1.000000 0.000001
vn -0.000000 1.000000 0.000001
vn -0.000000 1.000000 0.000001
vn -0.000000 1.000000 0.000001
vn -0.000000 1.000000 0.000000
vn -0.000000 1.000000 0.000001
vn -0.000000 1.000000 0.000000
vn -0.000001 1.000000 0.000001
vn 0.000001 1.000000 0.000000
vn 0.000001 1.000000 0.000000
vn 0.000001 1.000000 -0.000000
vn 0.000001 1.000000 0.000000
vn 0.000001 1.000000 -0.000000
vn -0.000000 1.000000 0.000000
vn -0.000000 1.000000 0.000000
vn 0.000001 1.000000 -0.000000
vn -0.000001 1.000000 -0.000000
vn -0.000000 1.000000 0.000000
vn -0.000001 1.000000 -0.000000
vn -0.000001 1.000000 -0.000001
vn -0.000000 1.000000 0.000000
vn -0.000001 1.000000 -0.000001
vn 0.000000 1.000000 -0.000000
vn 0.000000 1.000000 -0.000000
vn -0.000001 1.000000 -0.000001
vn 0.000000 1.000000 -0.000001
vn 0.000000 1.000000 -0.000001
vn -0.000001 1.000000 -0.000001
vn 0.000001 1.000000 -0.000001
vn 0.000000 1.000000 -0.000001
vn 0.000001 1.000000 -0.000001
vn 0.000002 1.000000 -0.000001
vn 0.000000 1.000000 -0.000001
vn 0.000000 1.000000 0.000000
vn -0.000000 1.000000 0.000001
vn 0.000000 1.000000 -0.000001
vn -0.000005 1.000000 0.000002
vn 0.000001 1.000000 0.000002
vn 0.000000 1.000000 -0.000000
vn 0.000000 1.000000 0.000002
vn -0.000001 1.000000 0.000001
vn 0.000001 1.000000 0.000000
vn -0.000000 1.000000 0.000000
vn -0.000000 1.000000 0.000000
vn -0.000000 1.000000 0.000000
vn -0.000000 1.000000 0.000000
vn -0.000000 1.000000 0.000001
vn -0.000022 1.000000 -0.000000
vn -0.000002 1.000000 0.000002
vn 0.000000 1.000000 -0.000000
vn -0.000002 1.000000 0.000002
vn 0.000001 1.000000 0.000000
vn 0.000000 1.000000 -0.000000
vn 0.000001 1.000000 0.000001
vn 0.000002 1.000000 0.000000
vn 0.000000 1.000000 -0.000000
vn 0.000002 1.000000 0.000000
vn 0.000000 1.000000 -0.000000
vn 0.000000 1.000000 -0.000000
vn 0.000000 1.000000 -0.000000
vn 0.000000 1.000000 -0.000000
vn 0.000001 1.000000 0.000000
vn 0.000001 1.000000 0.000001
vn 0.000000 1.000000 -0.000000
vn 0.000000 1.000000 0.000001
vn -0.000001 1.000000 0.000001
vn 0.000000 1.000000 -0.000000
vn -0.000001 1.000000 0.000000
vn -0.000000 1.000000 0.000000
vn 0.000000 1.000000 -0.000000
vn -0.000001 1.000000 0.000001
vn 0.000000 1.000000 -0.000000
vn 0.000001 1.000000 0.000002
vn 0.000000 1.000000 0.000002
vn 0.000000 1.000000 -0.000000
vn 0.000000 1.000000 -0.000001
vn 0.000001 1.000000 0.000002
vn 0.000000 1.000000 -0.000001
vn -0.000000 1.000000 0.000001
vn -0.000005 1.000000 0.000002
vn 0.000000 1.000000 -0.000001
vn 0.000002 1.000000 -0.000001
vn 0.000000 1.000000 0.000000
vn 0.000001 1.000000 0.000000
vn -0.000001 1.000000 0.000000
vn -0.000002 1.000000 0.000001
vn -0.000001 1.000000 0.000000
vn -0.000003 1.000000 0.000001
vn -0.000002 1.000000 0.000001
vn -0.000003 1.000000 0.000001
vn 0.000013 1.000000 0.000003
vn -0.000002 1.000000 0.000001
vn -0.000002 1.000000 0.000001
vn 0.000013 1.000000 0.000003
vn 0.000001 1.000000 0.000002
vn -0.000003 1.000000 0.000001
vn -0.000001 1.000000 0.000000
vn 0.000006 1.000000 0.000024
vn 0.000006 1.000000 0.000024
vn -0.000001 1.000000 0.000000
vn -0.000002 1.000000 -0.000001
vn -0.000004 1.000000 -0.000002
vn -0.000002 1.000000 -0.000001
vn -0.000001 1.000000 0.000000
vn 0.000005 1.000000 -0.000002
vn -0.000004 1.000000 -0.000007
vn -0.000004 1.000000 -0.000001
vn -0.000002 1.000000 -0.000001
vn -0.000004 1.000000 -0.000002
vn -0.000032 1.000000 0.000000
vn -0.000004 1.000000 -0.000001
vn -0.000004 1.000000 -0.000007
vn -0.000004 1.000000 -0.000002
vn -0.000004 1.000000 -0.000007
vn 0.000033 1.000000 -0.000029
vn -0.000004 1.000000 -0.000002
vn 0.000033 1.000000 -0.000029
vn -0.000032 1.000000 0.000000
vn -0.000004 1.000000 -0.000002
vn 0.000006 1.000000 0.000024
vn 0.000013 1.000000 0.000003
vn -0.000003 1.000000 0.000001
vn 0.480410 0.000736 -0.877044
vn 0.480410 0.000736 -0.877044
vn 0.567969 0.000554 -0.823050
vn 0.567662 0.000555 -0.823262
vn 0.999992 -0.001200 0.003819
vn 0.999992 -0.001200 0.003820
vn 0.999999 -0.001194 -0.000165
vn 0.999999 -0.001194 -0.000165
vn -0.127555 -0.000817 0.991831
vn -0.125016 -0.000792 0.992154
vn 0.276269 0.002093 0.961078
vn 0.275826 0.002092 0.961205
vn -0.424547 -0.000873 0.905405
vn -0.424921 -0.000862 0.905230
vn -0.125016 -0.000792 0.992154
vn -0.127555 -0.000817 0.991831
vn -0.525626 0.004087 0.850706
vn -0.525577 0.004085 0.850736
vn -0.508496 0.003128 0.861059
vn -0.508412 0.003122 0.861108
vn -0.562884 0.004267 0.826525
vn -0.562832 0.004269 0.826560
vn -0.525577 0.004085 0.850736
vn -0.525626 0.004087 0.850706
vn -0.632323 0.003837 0.774695
vn -0.632655 0.003837 0.774424
vn -0.562832 0.004269 0.826560
vn -0.562884 0.004267 0.826525
vn -0.000035 0.001374 -0.999999
vn -0.000036 0.001374 -0.999999
vn -0.002684 0.001541 -0.999995
vn -0.002684 0.001541 -0.999995
vn -0.002684 0.001541 -0.999995
vn -0.002684 0.001541 -0.999995
vn -0.002880 0.001694 -0.999994
vn -0.002880 0.001694 -0.999994
vn -0.002880 0.001694 -0.999994
vn -0.002880 0.001694 -0.999994
vn -0.002503 0.001569 -0.999996
vn -0.002503 0.001569 -0.999996
vn -0.002503 0.001569 -0.999996
vn -0.002503 0.001569 -0.999996
vn -0.004038 -0.001061 -0.999991
vn -0.004042 -0.001067 -0.999991
vn -0.004042 -0.001067 -0.999991
vn -0.004038 -0.001061 -0.999991
vn -0.005567 -0.003718 -0.999978
vn -0.005567 -0.003718 -0.999978
vn -0.940693 0.012812 0.339017
vn -0.940708 0.012814 0.338977
vn -0.911005 0.008218 0.412313
vn -0.911008 0.008218 0.412307
vn -0.865608 0.007932 0.500659
vn -0.865614 0.007932 0.500650
vn -0.805184 0.006999 0.592984
vn -0.805286 0.007004 0.592845
vn -0.708410 0.004032 0.705789
vn -0.708245 0.004031 0.705956
vn -0.632655 0.003837 0.774424
vn -0.632323 0.003837 0.774695
vn 0.999972 -0.001205 0.007434
vn 0.999972 -0.001205 0.007434
vn 0.999992 -0.001200 0.003820
vn 0.999992 -0.001200 0.003819
vn 0.062555 0.001565 0.998040
vn 0.062555 0.001565 0.998040
vn 0.062555 0.001565 0.998040
vn 0.062555 0.001565 0.998040
vn 0.928380 -0.001609 0.371629
vn 0.928380 -0.001609 0.371629
vn 0.996194 -0.000167 0.087168
vn 0.996199 -0.000167 0.087105
vn 0.996199 -0.000167 0.087105
vn 0.996194 -0.000167 0.087168
vn 0.998955 0.000041 0.045698
vn 0.998955 0.000041 0.045698
vn 0.275826 0.002092 0.961205
vn 0.276269 0.002093 0.961078
vn 0.510560 0.002850 0.859837
vn 0.510560 0.002850 0.859838
vn -0.508412 0.003122 0.861108
vn -0.508496 0.003128 0.861059
vn -0.424921 -0.000862 0.905230
vn -0.424547 -0.000873 0.905405
vn -0.805286 0.007004 0.592845
vn -0.805184 0.006999 0.592984
vn -0.708245 0.004031 0.705956
vn -0.708410 0.004032 0.705789
vn -0.911008 0.008218 0.412307
vn -0.911005 0.008218 0.412313
vn -0.865614 0.007932 0.500650
vn -0.865608 0.007932 0.500659
vn -0.956344 0.016112 0.291799
vn -0.956344 0.016112 0.291799
vn -0.940708 0.012814 0.338977
vn -0.940693 0.012812 0.339017
vn 0.002148 0.001371 -0.999997
vn 0.002148 0.001371 -0.999997
vn -0.000036 0.001374 -0.999999
vn -0.000035 0.001374 -0.999999
vn 0.498516 -0.001902 0.866879
vn 0.498562 -0.001902 0.866852
vn 0.373278 -0.001833 0.927718
vn 0.373279 -0.001833 0.927718
vn 0.999999 -0.001203 -0.000164
vn 0.999999 -0.001203 -0.000164
vn 0.999999 -0.001203 -0.000164
vn 0.999999 -0.001203 -0.000164
vn 0.820033 -0.001823 0.572314
vn 0.820033 -0.001823 0.572314
vn 0.686522 -0.001913 0.727107
vn 0.686553 -0.001913 0.727077
vn 0.567662 0.000555 -0.823262
vn 0.567969 0.000554 -0.823050
vn 0.883765 -0.000348 -0.467932
vn 0.883652 -0.000347 -0.468144
vn 0.999368 -0.001100 -0.035532
vn 0.999375 -0.001100 -0.035324
vn 0.997269 -0.001248 0.073838
vn 0.997270 -0.001248 0.073838
vn 0.883652 -0.000347 -0.468144
vn 0.883765 -0.000348 -0.467932
vn 0.968754 -0.000769 -0.248021
vn 0.968690 -0.000769 -0.248273
vn 0.968690 -0.000769 -0.248273
vn 0.968754 -0.000769 -0.248021
vn 0.999375 -0.001100 -0.035324
vn 0.999368 -0.001100 -0.035532
vn 0.686553 -0.001913 0.727077
vn 0.686522 -0.001913 0.727107
vn 0.498562 -0.001902 0.866852
vn 0.498516 -0.001902 0.866879
s off
g Glass06
usemtl Glass03SG
f 46/1/1 48/2/2 47/3/3
f 48/2/4 49/4/5 47/3/6
f 47/3/7 50/5/8 46/1/9
f 51/6/10 53/7/11 52/8/12
f 54/9/13 52/8/14 53/7/15
f 49/4/16 55/10/17 47/3/18
f 55/10/19 56/11/20 47/3/21
f 56/11/22 51/6/23 47/3/24
f 52/8/25 47/3/26 51/6/27
f 57/12/28 58/13/29 50/5/30
f 58/13/31 59/14/32 50/5/33
f 60/15/34 46/1/35 50/5/36
f 60/15/37 61/16/38 46/1/39
f 61/16/40 62/17/41 46/1/42
f 61/16/43 63/18/44 62/17/45
f 63/18/46 64/19/47 62/17/48
f 63/18/49 65/20/50 64/19/51
f 48/2/52 66/21/53 49/4/54
f 48/2/55 64/19/56 66/21/57
f 64/19/58 67/22/59 66/21/60
f 64/19/61 68/23/62 67/22/63
f 64/19/64 69/24/65 68/23/66
f 69/24/67 70/25/68 68/23/69
f 70/25/70 71/26/71 68/23/72
f 70/25/73 72/27/74 71/26/75
f 70/25/76 74/28/77 73/29/78
f 70/25/79 76/30/80 75/31/81
f 69/24/82 65/20/83 77/32/84
f 48/2/85 46/1/86 64/19/87
f 46/1/88 62/17/89 64/19/90
f 78/33/91 79/34/92 52/8/93
f 52/8/94 79/34/95 47/3/96
f 81/35/97 50/5/98 80/36/99
f 80/36/100 50/5/101 79/34/102
f 50/5/103 47/3/104 79/34/105
f 81/35/106 57/12/107 50/5/108
f 59/14/109 60/15/110 50/5/111
f 64/19/112 65/20/113 69/24/114
f 69/24/115 77/32/116 76/30/117
f 69/24/118 76/30/119 70/25/120
f 70/25/121 75/31/122 74/28/123
f 70/25/124 73/29/125 72/27/126
f 49/4/127 82/37/128 55/10/129
f 55/10/130 82/37/131 83/38/132
f 83/38/133 82/37/134 84/39/135
f 82/37/136 85/40/137 84/39/138
f 83/38/139 86/41/140 55/10/141
f 86/41/142 87/42/143 55/10/144
f 56/11/145 55/10/146 87/42/147
f 53/7/148 51/6/149 88/43/150
f 87/42/151 89/44/152 56/11/153
f 51/6/154 56/11/155 88/43/156
f 88/43/157 56/11/158 90/45/159
f 90/45/160 56/11/161 89/44/162
f 86/41/163 83/38/164 84/39/165
f 2/46/166 3/47/167 1/48/168
f 1/48/169 3/47/170 4/49/171
f 3/47/172 2/46/173 5/50/174
f 34/51/175 7/52/176 40/53/177
f 33/54/178 40/53/179 7/52/180
f 4/49/181 3/47/182 36/55/183
f 36/55/184 3/47/185 38/56/186
f 38/56/187 3/47/188 34/51/189
f 7/52/190 34/51/191 3/47/192
f 28/57/193 5/50/194 9/58/195
f 9/58/196 5/50/197 29/59/198
f 10/60/199 5/50/200 2/46/201
f 10/60/202 2/46/203 11/61/204
f 11/61/205 2/46/206 12/62/207
f 11/61/208 12/62/209 13/63/210
f 13/63/211 12/62/212 14/64/213
f 13/63/214 14/64/215 15/65/216
f 1/48/217 4/49/218 16/66/219
f 1/48/220 16/66/221 14/64/222
f 14/64/223 16/66/224 17/67/225
f 14/64/226 17/67/227 18/68/228
f 14/64/229 18/68/230 19/69/231
f 19/69/232 18/68/233 20/70/234
f 20/70/235 18/68/236 22/71/237
f 20/70/238 22/71/239 23/72/240
f 20/70/241 32/73/242 24/74/243
f 20/70/244 31/75/245 21/76/246
f 19/69/247 30/77/248 15/65/249
f 1/48/250 14/64/251 2/46/252
f 2/46/253 14/64/254 12/62/255
f 25/78/256 7/52/257 27/79/258
f 7/52/259 3/47/260 27/79/261
f 8/80/262 26/81/263 5/50/264
f 26/81/265 27/79/266 5/50/267
f 5/50/268 27/79/269 3/47/270
f 8/80/271 5/50/272 28/57/273
f 29/59/274 5/50/275 10/60/276
f 14/64/277 19/69/278 15/65/279
f 19/69/280 21/76/281 30/77/282
f 19/69/283 20/70/284 21/76/285
f 20/70/286 24/74/287 31/75/288
f 20/70/289 23/72/290 32/73/291
f 4/49/292 36/55/293 6/82/294
f 36/55/295 37/83/296 6/82/297
f 37/83/298 44/84/299 6/82/300
f 6/82/301 44/84/302 35/85/303
f 37/83/304 36/55/305 45/86/306
f 45/86/307 36/55/308 39/87/309
f 38/56/310 39/87/311 36/55/312
f 40/53/313 43/88/314 34/51/315
f 39/87/316 38/56/317 41/89/318
f 34/51/319 43/88/320 38/56/321
f 43/88/322 42/90/323 38/56/324
f 42/90/325 41/89/326 38/56/327
f 45/86/328 44/84/329 37/83/330
f 33/91/331 54/9/332 53/7/333 40/92/334
f 7/93/335 52/8/336 54/9/337 33/91/338
f 9/94/339 58/13/340 57/12/341 28/95/342
f 29/96/343 59/14/344 58/13/345 9/94/346
f 11/97/347 61/16/348 60/15/349 10/98/350
f 13/99/351 63/18/352 61/16/353 11/97/354
f 15/100/355 65/20/356 63/18/357 13/99/358
f 4/101/359 49/4/360 66/21/361 16/102/362
f 16/102/363 66/21/364 67/22/365 17/103/366
f 17/103/367 67/22/368 68/23/369 18/104/370
f 18/104/371 68/23/372 71/26/373 22/105/374
f 22/105/375 71/26/376 72/27/377 23/106/378
f 32/107/379 73/29/380 74/28/381 24/108/382
f 31/109/383 75/31/384 76/30/385 21/110/386
f 30/111/387 77/32/388 65/20/389 15/100/390
f 25/112/391 78/33/392 52/8/393 7/93/394
f 27/113/395 79/34/396 78/33/397 25/112/398
f 8/114/399 81/35/400 80/36/401 26/115/402
f 26/115/403 80/36/404 79/34/405 27/113/406
f 28/95/407 57/12/408 81/35/409 8/114/410
f 10/98/411 60/15/412 59/14/413 29/96/414
f 21/110/415 76/30/416 77/32/417 30/111/418
f 24/108/419 74/28/420 75/31/421 31/109/422
f 23/106/423 72/27/424 73/29/425 32/107/426
f 6/116/427 82/37/428 49/4/429 4/101/430
f 44/117/431 84/39/432 85/40/433 35/118/434
f 35/118/435 85/40/436 82/37/437 6/116/438
f 39/119/439 87/42/440 86/41/441 45/120/442
f 40/92/443 53/7/444 88/43/445 43/121/446
f 41/122/447 89/44/448 87/42/449 39/119/450
f 43/121/451 88/43/452 90/45/453 42/123/454
f 42/123/455 90/45/456 89/44/457 41/122/458
f 45/120/459 86/41/460 84/39/461 44/117/462
